<?xml version="1.0" standalone="no"?>
 <!DOCTYPE svg PUBLIC "-//W3C//DTD SVG 1.1//EN" 
 "http://www.w3.org/Graphics/SVG/1.1/DTD/svg11.dtd"> 
<svg xmlns="http://www.w3.org/2000/svg" version="1.1" 
    width="3.09372cm" height="2.58826cm" viewBox="0 0 12180 10190 ">
<title>SVG Picture created as heartrate_sensor_mini_shape-Edge.Cuts.svg date 2018/06/21 14:20:04 </title>
  <desc>Picture generated by PCBNEW </desc>
<g style="fill:#000000; fill-opacity:1;stroke:#000000; stroke-opacity:1;
stroke-linecap:round; stroke-linejoin:round; "
 transform="translate(0 0) scale(1 1)">
</g>
<g style="fill:#000000; fill-opacity:0.0; 
stroke:#000000; stroke-width:-0.000393701; stroke-opacity:1; 
stroke-linecap:round; stroke-linejoin:round;">
</g>
<g style="fill:#000000; fill-opacity:0.0; 
stroke:#000000; stroke-width:320; stroke-opacity:1; 
stroke-linecap:round; stroke-linejoin:round;">
<path d="M5590 10036
L6574 10036
" />
<path d="M1043 5488
L5590 10036
" />
<path d="M11121 5488
L6574 10036
" />
<path d="M1062.72 1177.83 A3048.39 3048.39 0.0 0 0 1043.03 5488.85 " />
<path d="M11121.8 5488.85 A3048.39 3048.39 0.0 0 0 11141.5 1177.83 " />
<path d="M6082 1433
L6357 1158
" />
<path d="M5806 1158
L6082 1433
" />
<path d="M11102.1 1138.46 A3340.66 3340.66 0.0 0 0 6377.68 1138.46 " />
<path d="M5806.81 1158.14 A3340.66 3340.66 0.0 0 0 1082.4 1158.14 " />
</g> 
</svg>
