<?xml version="1.0" standalone="no"?>
 <!DOCTYPE svg PUBLIC "-//W3C//DTD SVG 1.1//EN" 
 "http://www.w3.org/Graphics/SVG/1.1/DTD/svg11.dtd"> 
<svg xmlns="http://www.w3.org/2000/svg" version="1.1" 
    width="3.09372cm" height="2.58826cm" viewBox="0 0 12180 10190 ">
<title>SVG Picture created as heartrate_sensor_mini_shape-F.Cu.svg date 2018/06/21 14:20:04 </title>
  <desc>Picture generated by PCBNEW </desc>
<g style="fill:#000000; fill-opacity:1;stroke:#000000; stroke-opacity:1;
stroke-linecap:round; stroke-linejoin:round; "
 transform="translate(0 0) scale(1 1)">
</g>
<g style="fill:#000000; fill-opacity:0.0; 
stroke:#000000; stroke-width:-0.000393701; stroke-opacity:1; 
stroke-linecap:round; stroke-linejoin:round;">
</g>
<g style="fill:#000000; fill-opacity:0.0; 
stroke:#000000; stroke-width:157.48; stroke-opacity:1; 
stroke-linecap:round; stroke-linejoin:round;">
<path d="M7206 4708
L6418 4708
" />
<path d="M7206 4371
L6793 4371
L6718 4408
L6681 4483
L6681 4596
L6718 4671
L6756 4708
" />
<path d="M7206 3996
L6681 3996
" />
<path d="M6831 3996
L6756 3959
L6718 3921
L6681 3846
L6681 3771
" />
<path d="M6681 3621
L6681 3321
" />
<path d="M6418 3509
L7093 3509
L7168 3471
L7206 3396
L7206 3321
" />
</g>
<g style="fill:#000000; fill-opacity:0.0; 
stroke:#000000; stroke-width:0; stroke-opacity:1; 
stroke-linecap:round; stroke-linejoin:round;">
</g>
<g style="fill:#000000; fill-opacity:1.0; 
stroke:#000000; stroke-width:0; stroke-opacity:1; 
stroke-linecap:round; stroke-linejoin:round;">
<polyline style="fill-rule:evenodd;"
points="2598,2516
2598,2358
2991,2358
2991,2516
2598,2516
" /> 
<polyline style="fill-rule:evenodd;"
points="2598,2831
2598,2673
2991,2673
2991,2831
2598,2831
" /> 
<polyline style="fill-rule:evenodd;"
points="2598,3146
2598,2988
2991,2988
2991,3146
2598,3146
" /> 
<polyline style="fill-rule:evenodd;"
points="2598,3461
2598,3303
2991,3303
2991,3461
2598,3461
" /> 
<polyline style="fill-rule:evenodd;"
points="2598,3776
2598,3618
2991,3618
2991,3776
2598,3776
" /> 
<polyline style="fill-rule:evenodd;"
points="2598,4091
2598,3933
2991,3933
2991,4091
2598,4091
" /> 
<polyline style="fill-rule:evenodd;"
points="2598,4406
2598,4248
2991,4248
2991,4406
2598,4406
" /> 
<polyline style="fill-rule:evenodd;"
points="3621,4406
3621,4248
4015,4248
4015,4406
3621,4406
" /> 
<polyline style="fill-rule:evenodd;"
points="3621,4091
3621,3933
4015,3933
4015,4091
3621,4091
" /> 
<polyline style="fill-rule:evenodd;"
points="3621,3776
3621,3618
4015,3618
4015,3776
3621,3776
" /> 
<polyline style="fill-rule:evenodd;"
points="3621,3461
3621,3303
4015,3303
4015,3461
3621,3461
" /> 
<polyline style="fill-rule:evenodd;"
points="3621,3146
3621,2988
4015,2988
4015,3146
3621,3146
" /> 
<polyline style="fill-rule:evenodd;"
points="3621,2831
3621,2673
4015,2673
4015,2831
3621,2831
" /> 
<polyline style="fill-rule:evenodd;"
points="3621,2516
3621,2358
4015,2358
4015,2516
3621,2516
" /> 
<polyline style="fill-rule:evenodd;"
points="7776,6861
7026,6861
7026,6361
7776,6361
7776,6861
" /> 
<polyline style="fill-rule:evenodd;"
points="7776,5561
7026,5561
7026,5061
7776,5061
7776,5561
" /> 
<polyline style="fill-rule:evenodd;"
points="5707,7226
6457,7226
6457,7726
5707,7726
5707,7226
" /> 
<polyline style="fill-rule:evenodd;"
points="5707,8526
6457,8526
6457,9026
5707,9026
5707,8526
" /> 
<polyline style="fill-rule:evenodd;"
points="4427,5061
5177,5061
5177,5561
4427,5561
4427,5061
" /> 
<polyline style="fill-rule:evenodd;"
points="4427,6361
5177,6361
5177,6861
4427,6861
4427,6361
" /> 
<circle cx="10027.3" cy="4382.55" r="354.331" /> 
</g>
<g style="fill:#000000; fill-opacity:1.0; 
stroke:#000000; stroke-width:40; stroke-opacity:1; 
stroke-linecap:round; stroke-linejoin:round;">
</g>
<g style="fill:#000000; fill-opacity:1.0; 
stroke:#000000; stroke-width:0; stroke-opacity:1; 
stroke-linecap:round; stroke-linejoin:round;">
<circle cx="9027.28" cy="4382.55" r="354.331" /> 
</g>
<g style="fill:#000000; fill-opacity:1.0; 
stroke:#000000; stroke-width:40; stroke-opacity:1; 
stroke-linecap:round; stroke-linejoin:round;">
</g>
<g style="fill:#000000; fill-opacity:1.0; 
stroke:#000000; stroke-width:0; stroke-opacity:1; 
stroke-linecap:round; stroke-linejoin:round;">
<circle cx="10027.3" cy="3382.55" r="354.331" /> 
</g>
<g style="fill:#000000; fill-opacity:1.0; 
stroke:#000000; stroke-width:40; stroke-opacity:1; 
stroke-linecap:round; stroke-linejoin:round;">
</g>
<g style="fill:#000000; fill-opacity:1.0; 
stroke:#000000; stroke-width:0; stroke-opacity:1; 
stroke-linecap:round; stroke-linejoin:round;">
<circle cx="9027.28" cy="3382.55" r="354.331" /> 
</g>
<g style="fill:#000000; fill-opacity:1.0; 
stroke:#000000; stroke-width:40; stroke-opacity:1; 
stroke-linecap:round; stroke-linejoin:round;">
</g>
<g style="fill:#000000; fill-opacity:1.0; 
stroke:#000000; stroke-width:0; stroke-opacity:1; 
stroke-linecap:round; stroke-linejoin:round;">
<circle cx="10027.3" cy="2382.55" r="354.331" /> 
</g>
<g style="fill:#000000; fill-opacity:1.0; 
stroke:#000000; stroke-width:40; stroke-opacity:1; 
stroke-linecap:round; stroke-linejoin:round;">
</g>
<g style="fill:#000000; fill-opacity:1.0; 
stroke:#000000; stroke-width:0; stroke-opacity:1; 
stroke-linecap:round; stroke-linejoin:round;">
<circle cx="9027.28" cy="2382.55" r="354.331" /> 
</g>
<g style="fill:#000000; fill-opacity:1.0; 
stroke:#000000; stroke-width:40; stroke-opacity:1; 
stroke-linecap:round; stroke-linejoin:round;">
</g>
<g style="fill:#000000; fill-opacity:1.0; 
stroke:#000000; stroke-width:157.48; stroke-opacity:1; 
stroke-linecap:round; stroke-linejoin:round;">
</g>
<g style="fill:#000000; fill-opacity:0.0; 
stroke:#000000; stroke-width:157.48; stroke-opacity:1; 
stroke-linecap:round; stroke-linejoin:round;">
<path d="M3739 3854
L5019 3854
" />
<path d="M3818 4327
L4606 4327
" />
<path d="M2795 4327
L2007 4327
" />
<path d="M2716 4937
L3897 4937
" />
<path d="M3818 2437
L4606 2437
" />
<path d="M2007 4012
L2795 4012
" />
<path d="M2007 3697
L2795 3697
" />
<path d="M2007 2437
L2795 2437
" />
<path d="M5649 2614
L6515 2614
" />
<path d="M2795 2752
L1692 2752
" />
<path d="M6747 2382
L9027 2382
" />
<path d="M6515 2614
L6747 2382
" />
<path d="M4861 1827
L5649 2614
" />
<path d="M2007 1827
L4861 1827
" />
<path d="M1633 2201
L2007 1827
" />
<path d="M1633 2693
L1633 2201
" />
<path d="M1692 2752
L1633 2693
" />
<path d="M5806 2260
L6318 2260
" />
<path d="M5806 2260
L4999 1453
" />
<path d="M10027 1874
L9625 1473
" />
<path d="M9625 1473
L7106 1473
" />
<path d="M7106 1473
L6318 2260
" />
<path d="M10027 2205
L10027 1874
" />
<path d="M1460 3071
L2795 3071
" />
<path d="M1239 2851
L1460 3071
" />
<path d="M1239 2043
L1239 2851
" />
<path d="M1830 1453
L1239 2043
" />
<path d="M4999 1453
L1830 1453
" />
<path d="M2795 3071
L2795 3067
" />
<path d="M1417 3382
L1239 3559
" />
<path d="M1239 3559
L1239 4504
" />
<path d="M3818 3067
L4606 3067
" />
<path d="M2795 3382
L1417 3382
" />
<path d="M3346 6611
L4802 6611
" />
<path d="M1239 4504
L3346 6611
" />
<path d="M3818 3067
L3424 3067
" />
<path d="M3188 3382
L2795 3382
" />
<path d="M3306 3264
L3188 3382
" />
<path d="M3306 3185
L3306 3264
" />
<path d="M3424 3067
L3306 3185
" />
<path d="M6180 8776
L5452 8776
" />
<path d="M5452 8776
L4802 8126
" />
<path d="M4802 8126
L4802 6611
" />
<path d="M10027 4205
L10027 5501
" />
<path d="M6751 8776
L6180 8776
" />
<path d="M10027 5501
L6751 8776
" />
<path d="M10027 3382
L10511 3382
" />
<path d="M10495 4382
L10027 4382
" />
<path d="M10728 4150
L10495 4382
" />
<path d="M10728 3599
L10728 4150
" />
<path d="M10511 3382
L10728 3599
" />
<path d="M5019 3697
L5462 4140
" />
<path d="M5462 5311
L5462 4140
" />
<path d="M5019 3697
L3818 3697
" />
<path d="M5462 5311
L5462 7998
" />
<path d="M5462 7998
L5491 8028
" />
<path d="M3818 4012
L5334 4012
" />
<path d="M5462 5311
L5462 5311
" />
<path d="M4802 5311
L4980 5134
" />
<path d="M7401 6611
L7401 7477
" />
<path d="M7401 7477
L6850 8028
" />
<path d="M6850 8028
L5491 8028
" />
<path d="M5462 5311
L4802 5311
" />
<path d="M5491 8028
L5491 8028
" />
<path d="M9027 4205
L9027 5851
" />
<path d="M8267 6611
L7401 6611
" />
<path d="M9027 5851
L8267 6611
" />
<path d="M9046 3382
L8405 3382
" />
<path d="M7952 5980
L6082 5980
" />
<path d="M8188 5744
L7952 5980
" />
<path d="M8188 3599
L8188 5744
" />
<path d="M8405 3382
L8188 3599
" />
<path d="M3818 3382
L5176 3382
" />
<path d="M6082 4288
L6082 5980
" />
<path d="M6082 5980
L6082 7378
" />
<path d="M5176 3382
L6082 4288
" />
<path d="M6082 7378
L6180 7476
" />
<path d="M3818 3386
L3818 3382
" />
<path d="M3818 3386
L3818 3382
" />
<path d="M7184 2969
L7381 2969
" />
<path d="M7381 2969
L7558 3146
" />
<path d="M5373 2969
L7184 2969
" />
<path d="M7558 3146
L7558 5311
" />
<path d="M7558 5311
L7558 5154
" />
<path d="M5373 2969
L5157 2752
" />
<path d="M5161 2756
L3818 2756
" />
<path d="M3818 2756
L3818 2752
" />
<path d="M7558 5311
L7499 5311
" />
</g>
<g style="fill:#FFFFFF; fill-opacity:0.0; 
stroke:#FFFFFF; stroke-width:157.48; stroke-opacity:1; 
stroke-linecap:round; stroke-linejoin:round;">
</g>
<g style="fill:#FFFFFF; fill-opacity:1.0; 
stroke:#FFFFFF; stroke-width:0; stroke-opacity:1; 
stroke-linecap:round; stroke-linejoin:round;">
<circle cx="10027.3" cy="4382.55" r="160" /> 
</g>
<g style="fill:#FFFFFF; fill-opacity:1.0; 
stroke:#FFFFFF; stroke-width:40; stroke-opacity:1; 
stroke-linecap:round; stroke-linejoin:round;">
</g>
<g style="fill:#FFFFFF; fill-opacity:1.0; 
stroke:#FFFFFF; stroke-width:0; stroke-opacity:1; 
stroke-linecap:round; stroke-linejoin:round;">
<circle cx="9027.28" cy="4382.55" r="160" /> 
</g>
<g style="fill:#FFFFFF; fill-opacity:1.0; 
stroke:#FFFFFF; stroke-width:40; stroke-opacity:1; 
stroke-linecap:round; stroke-linejoin:round;">
</g>
<g style="fill:#FFFFFF; fill-opacity:1.0; 
stroke:#FFFFFF; stroke-width:0; stroke-opacity:1; 
stroke-linecap:round; stroke-linejoin:round;">
<circle cx="10027.3" cy="3382.55" r="160" /> 
</g>
<g style="fill:#FFFFFF; fill-opacity:1.0; 
stroke:#FFFFFF; stroke-width:40; stroke-opacity:1; 
stroke-linecap:round; stroke-linejoin:round;">
</g>
<g style="fill:#FFFFFF; fill-opacity:1.0; 
stroke:#FFFFFF; stroke-width:0; stroke-opacity:1; 
stroke-linecap:round; stroke-linejoin:round;">
<circle cx="9027.28" cy="3382.55" r="160" /> 
</g>
<g style="fill:#FFFFFF; fill-opacity:1.0; 
stroke:#FFFFFF; stroke-width:40; stroke-opacity:1; 
stroke-linecap:round; stroke-linejoin:round;">
</g>
<g style="fill:#FFFFFF; fill-opacity:1.0; 
stroke:#FFFFFF; stroke-width:0; stroke-opacity:1; 
stroke-linecap:round; stroke-linejoin:round;">
<circle cx="10027.3" cy="2382.55" r="160" /> 
</g>
<g style="fill:#FFFFFF; fill-opacity:1.0; 
stroke:#FFFFFF; stroke-width:40; stroke-opacity:1; 
stroke-linecap:round; stroke-linejoin:round;">
</g>
<g style="fill:#FFFFFF; fill-opacity:1.0; 
stroke:#FFFFFF; stroke-width:0; stroke-opacity:1; 
stroke-linecap:round; stroke-linejoin:round;">
<circle cx="9027.28" cy="2382.55" r="160" /> 
</g>
<g style="fill:#FFFFFF; fill-opacity:1.0; 
stroke:#FFFFFF; stroke-width:40; stroke-opacity:1; 
stroke-linecap:round; stroke-linejoin:round;">
</g>
<g style="fill:#000000; fill-opacity:1.0; 
stroke:#000000; stroke-width:40; stroke-opacity:1; 
stroke-linecap:round; stroke-linejoin:round;">
</g> 
</svg>
